<?xml version="1.0" encoding="utf-8"?>
<!-- Generator: Adobe Illustrator 24.3.0, SVG Export Plug-In . SVG Version: 6.00 Build 0)  -->
<svg version="1.1" id="Layer_1" xmlns="http://www.w3.org/2000/svg" xmlns:xlink="http://www.w3.org/1999/xlink" x="0px" y="0px"
	 viewBox="0 0 220 80" style="enable-background:new 0 0 220 80;" xml:space="preserve">
<style type="text/css">
	.st0{fill:#FFFFFF;}
	.st1{fill:#FCFCFC;}
</style>
<g>
	<path class="st0" d="M46.8,41.88c0,0,10.57-0.21,11.66,11.66c0,0,0.29,11.68-11.66,12.19H11.07l10.35-10.68h-5.99L1,70.1h46.32
		c0,0,14.7,0.38,15.46-16.01c0,0,0.54-16.2-15.91-16.53H19.94c0,0-5.62,0.31-9.78-5.44c0,0-3.47-4.79-0.94-10.71
		c0,0,2.54-6.71,10.73-7.15H54.6l-7.68,7.94h5.99L64.68,9.9H19.87c0,0-6.2-0.22-10.56,3.98c0,0-3.53,3.09-4.65,7.15
		c0,0-1.8,4.98,0.07,9.98c0,0,2.04,6.04,7.15,8.74c0,0,3.86,2.3,7.97,2.14C23.95,41.71,46.8,41.88,46.8,41.88z"/>
	<polygon class="st0" points="101.21,19.04 72.5,65.74 88.12,65.74 98.84,46.79 103.8,46.79 90.59,70.1 64.83,70.1 101.47,10.55 
		134.51,70.1 129.56,70.1 	"/>
	<rect x="142.4" y="37.89" class="st0" width="4.37" height="32.21"/>
	<rect x="135.76" y="37.82" class="st0" width="11.01" height="4.37"/>
	<rect x="140.36" y="24.38" class="st0" width="6.41" height="6.41"/>
	<rect x="156.65" y="10.05" class="st0" width="4.37" height="60.05"/>
	<polygon class="st0" points="161.02,14.42 214.51,14.42 218.69,10.05 161.02,10.05 	"/>
	<polygon class="st0" points="161.02,42.11 187.83,42.11 191.7,37.89 161.02,37.89 	"/>
	<polygon class="st0" points="218.43,10.17 207.21,22.36 201.22,22.36 213.06,10.11 	"/>
	<polygon class="st1" points="191.7,37.89 180.27,50.35 174.29,50.35 186.02,38 	"/>
</g>
</svg>
